<?xml version="1.0" encoding="UTF-8" standalone="no"?>
<svg xmlns:rdf="http://www.w3.org/1999/02/22-rdf-syntax-ns#" xmlns="http://www.w3.org/2000/svg" xml:space="preserve" version="1.0" xmlns:cc="http://creativecommons.org/ns#" xmlns:dc="http://purl.org/dc/elements/1.1/" viewBox="0 0 384.54 199.65"><g style=""><path d="m101.84 114.01 17.329-48.58 13.515-5.1862-13.518 5.1862h-1.0462l-35.413-0.0038-16.538 48.636 0.015-0.0162 35.655-0.0362z"/><path d="m352.81 53.238-0.0125 0.005-4.5475 11.231h-130.54l2.9075-7.1438 3.305-9.0238h-29.979l-8.47 23.071-16.545 7.6025 16.594-7.6212 46.162 37.66-16.195 7.145 16.184-7.145-10.798 31.282s-8.83 36.58-39.671 36.58h-43.96l-16.795-12.205 7.1525-19.478h-100.1l0.0087-0.0263 13.718-5.4012-13.726 5.4012 3.4912-11.628 132.05 0.39875-0.045 0.0262h0.0325l-1.5012 3.615h0.0263l-5.0588 13.802 0.0175-0.01h29.848l9.2175-25.451h0.007l-47.651-36.904 0.005-0.015 20.96-10.032-20.988 10.038 7.94-22.314c15.916-48.432 43.772-44.644 43.334-44.626l45.39 0.9625-0.025 0.025h0.025l14.852 10.785-6.9088 19.342h-0.0113l100.3 0.05zm-27.084 76.272c-6.615 17.984-25.191 15.946-25.191 15.946h-49.395l-15.74-10.735 21.944-61.571h26.262 0.007l-0.10125 0.3075-21.08 60.381h0.0163l26.391-0.0575c9.3488-0.0737 11.848-7.435 13.486-12.389 1.6188-4.945 16.735-48.381 16.735-48.381h26.432s-16.416 47.325-19.768 56.499m-271.33-55.85c6.8375-20.025 23.896-20.099 23.896-20.099h53.543l14.105 9.7362s-12.115 33.344-16.736 46.216c-5.5338 15.404-23.966 16.376-23.966 16.376h-9.3525-30.391-9.3538l-15.93-11.134 14.186-41.096m219.16-44.188-25.13-18.598h-51.411c-23.161 0-39.595 21.459-44.308 30.209h-69.229c-9.4338-0.18875-32.421 4.4638-39.004 21.944-4.9588 13.12-13.644 41.039-17.668 54.121l12.405 8.3488-14.982-0.11-9.415 30.158 95.934 0.0213-4.7775 12.031 27.14 21.149 48.101-0.0425c29.47 0 44.998-25.665 50.125-41.974l15.806 10.775h53.908c9.58 0.725 28.19-3.1262 35.459-22.886 2.9962-8.1813 13.914-39.238 14.381-40.568l6.2-17.62h-0.0362l12.226-35.402h-99.839l4.12-11.556"/><g stroke="#ff7300" stroke-width=".1" fill="#ff7300"><path d="m240.14 59.02 12.37-5.8325-0.10499 0.05-12.265 5.7825z"/><path d="m250.44 59.02h-10.298l12.265-5.7825 0.105-0.05h0.0113l6.9088-19.342-14.852-10.784h-0.025l-11.332 13.841h-35.639c-7.6188 0-15.581 5.2312-18.596 13.08-4.7325 12.288-10.084 28.992-10.084 28.992l-20.96 10.032-0.005 0.01625 47.651 36.902 19.885-9.73s-8.6475 22.33-11.275 30.231c-3.8462 11.565-12.085 16.604-23.632 16.604h-45.122l21.055-11.642 5.0575-13.802h-0.025l1.5012-3.615h-0.0325l-10.705 5.8h-22.696-88.371l-13.718 5.4012-0.0087 0.0263h100.1l-7.1525 19.478 16.795 12.205h43.96c30.841 0 39.671-36.58 39.671-36.58l10.798-31.282-16.184 7.1462-46.561-37.185 16.544-7.6025 8.4712-23.07h29.979l-3.305 9.0238-2.9075 7.1425h130.54l4.5475-11.23-10.842 5.7762h-91.515z"/><path d="m314.18 123.35c-5.3188 11.852-14.58 16.215-21.726 16.215h-36.408l6.3962-5.7275h-0.0163l21.08-60.381 0.1025-0.3075h-0.009l-16.994 9.4988-14.402 43.051-16.81 9.0212 15.74 10.735h49.395s18.576 2.0375 25.191-15.948c3.3525-9.1738 19.769-56.497 19.769-56.497l-18.064 10.302-13.245 40.037z"/><path d="m66.17 114.06 16.538-48.636 35.413 0.0038h1.0462l13.518-5.1862-16.62 48.744c-3.845 9.8612-14.801 10.135-14.801 10.135h-40.21l5.1175-5.06zm-0.68375 11.842h30.391 9.3525s18.433-0.97125 23.966-16.376c4.6212-12.872 16.738-46.216 16.738-46.216l-14.106-9.7362 0.8725 6.665-50.242-0.01875c-11.249 0-15.926 13.495-15.926 13.495l-11.11 32.548-15.219 8.5062 15.93 11.134h9.3538"/></g><path d="m373.31 42.428s-12.221 35.415-12.204 35.434c0 0-6.1938 17.624-6.265 17.834 0 0-14.332 40.402-14.332 40.409-8.0262 21.831-28.456 26.412-39.5 25.687h-55.198s-7.7438-5.275-12.355-8.4225c-7.7738 19.34-25.199 39.615-52.255 39.615l-49.568 0.0488-30.83-24.02s2.4138-6.0788 3.64-9.1625c-10.994 0-95.453-0.0163-95.453-0.0163l12.799-40.89s13.788-44.464 18.672-57.412c7.8138-20.709 34.396-24.881 43.01-24.71h66.835c7.005-11.578 23.976-30.206 46.7-30.206h51.412 1.4162l28.816 21.319s-2.1112 5.9088-3.1538 8.83h99.77l-1.9538 5.6688zm-89.15-11.78c0.77125-2.1488 1.7712-4.9275 1.7712-4.9275l-34.1-25.22h-3.4175-51.412c-23.465 0-41.371 17.501-50.064 30.211h-63.471c-10.316-0.2075-39.628 4.5362-48.724 28.66-4.95 13.104-13.326 39.922-17.87 54.744 0 0-0.21125 0.6675-0.2625 0.83625h-0.0075l-15.925 50.985s73.148 0.0162 94.76 0.0162c-0.845 2.1338-2.005 5.0638-2.005 5.0638l36.099 28.13 51.68-0.0525c26.852 0 45.115-17.72 54.796-36.594 2.3425 1.6025 7.9138 5.4063 7.9138 5.4063h57.04c12.832 0.715 36.089-4.7075 45.279-29.69 0.0113-0.0213 14.364-40.489 14.364-40.489 0.0738-0.22 6.27-17.841 6.27-17.841-0.007-0.0525 12.209-35.465 12.209-35.465l4.755-13.774h-99.679" stroke="#bebebe" fill="#bebebe"/><g stroke="#f90" stroke-width=".1" fill="#f90"><path d="m369.27 41.038-12.226 35.402h0.0362l-6.2 17.62c-0.4675 1.33-11.385 32.386-14.381 40.567-7.2675 19.76-25.878 23.611-35.459 22.886h-53.906l-15.808-10.775c-5.1275 16.308-20.655 41.974-50.125 41.974l-48.1 0.0425-27.141-21.149 4.7775-12.031-95.934-0.0212 9.415-30.159 14.982 0.11125-12.405-8.3488c4.025-13.082 12.71-41.001 17.668-54.121 6.5825-17.48 29.57-22.132 39.004-21.944h69.229c4.7125-8.75 21.146-30.209 44.308-30.209h51.411l25.136 18.598-4.12 11.556h99.839zm-90.622-13.109-28.816-21.319h-1.4162-51.411c-22.725 0-39.695 18.629-46.7 30.206h-66.836c-8.6138-0.17125-35.195 4-43.01 24.71-4.885 12.949-18.672 57.412-18.672 57.412l-12.799 40.892s84.458 0.0163 95.453 0.0163c-1.2275 3.0838-3.64 9.1625-3.64 9.1625l30.836 24.022 49.566-0.0488c27.056 0 44.481-20.275 52.255-39.616 4.6112 3.1475 12.356 8.4225 12.356 8.4225h55.196c11.045 0.725 31.474-3.8562 39.5-25.688 0-0.005 14.332-40.409 14.332-40.409 0.0713-0.21 6.2662-17.834 6.2662-17.834-0.0175-0.0175 12.202-35.432 12.202-35.432l1.955-5.67h-99.77c1.0425-2.9212 3.1525-8.8288 3.1525-8.8288"/><path d="m66.531 73.713s4.6775-13.495 15.926-13.495l50.242 0.01875-0.8725-6.665h-53.542s-17.059 0.07375-23.896 20.099l-14.186 41.096 15.219-8.5062 11.11-32.547z"/><path d="m116.06 108.98 16.62-48.744-13.515 5.1862-17.329 48.58-35.656 0.0375-0.01375 0.015-0.0087 0.0213-5.1088 5.0388h40.209s10.958-0.2725 14.803-10.135"/><path d="m66.17 114.06-5.1175 5.06 5.11-5.0388 0.0075-0.0212z"/><path d="m152.29 139.77 10.701-5.8012h0.004l0.045-0.025-132.05-0.4-3.4912 11.628 13.726-5.4013h111.07z"/><path d="m152.29 139.77 10.705-5.8012h-0.004l-10.701 5.8012z"/><path d="m135.44 163.03h45.122c11.548 0 19.785-5.0387 23.632-16.604 2.6262-7.9012 11.275-30.231 11.275-30.231l-19.882 9.7312h-0.002-0.007l-9.2188 25.45h-29.848l-0.0175 0.0112-21.054 11.642z"/></g><g stroke-width=".1"><path d="m156.5 151.39-21.054 11.642 21.054-11.642z" stroke="#ff7300" fill="#ff7300"/><path d="m215.47 116.2-19.885 9.73h0.002l19.883-9.73z" stroke="#ff7300" fill="#ff7300"/><path d="m231.68 109.02-46.162-37.66-16.594 7.6212 46.562 37.184 16.194-7.145z" stroke="#f90" fill="#f90"/><path d="m197.58 36.903h35.639l11.33-13.842h0.002l0.025-0.02625-45.39-0.96125c0.43875-0.0175-27.418-3.8062-43.334 44.626l-7.94 22.314 20.988-10.038s5.3512-16.706 10.084-28.992c3.015-7.85 10.978-13.08 18.596-13.08" stroke="#f90" fill="#f90"/><path d="m233.22 36.903 11.334-13.842h-0.002l-11.331 13.842z" stroke="#ff7300" fill="#ff7300"/><path d="m240.14 59.02h10.298 91.516l10.841-5.7825v0.0063l0.0125-0.0063-100.3-0.05-12.37 5.8325z" stroke="#f90" fill="#f90"/><path d="m341.95 59.02 10.842-5.7762v-0.0063l-10.842 5.7825z" stroke="#ff7300" fill="#ff7300"/><path d="m266.61 82.65 16.611-9.2862 0.38375-0.2125h-26.262l-21.944 61.57 16.81-9.0212 14.401-43.05z" stroke="#f90" fill="#f90"/><path d="m266.61 82.65 16.995-9.4988-0.38375 0.2125-16.611 9.2862z" stroke="#ff7300" fill="#ff7300"/><path d="m302.32 121.39c-1.64 4.955-4.1375 12.315-13.486 12.389l-26.391 0.0588-6.3975 5.7275h36.408c7.1462 0 16.409-4.3625 21.726-16.215l13.245-40.037 18.064-10.304h-26.433s-15.118 43.437-16.735 48.381" stroke="#f90" fill="#f90"/></g></g></svg>
